<mxfile host="app.diagrams.net" agent="Mozilla/5.0 (Windows NT 10.0; Win64; x64) AppleWebKit/537.36 (KHTML, like Gecko) Chrome/135.0.0.0 Safari/537.36" version="24.7.7">
  <diagram name="Página-1" id="PcN6vMD7wcFQuCAnD4WM">
    <mxGraphModel dx="880" dy="1641" grid="1" gridSize="10" guides="1" tooltips="1" connect="1" arrows="1" fold="1" page="1" pageScale="1" pageWidth="827" pageHeight="1169" math="0" shadow="0">
      <root>
        <mxCell id="0" />
        <mxCell id="1" parent="0" />
        <mxCell id="r0rCcW0YkInOA2BVmBVI-1" value="Proceso Póliza" style="swimlane;whiteSpace=wrap;html=1;fillColor=#f5f5f5;fontColor=#333333;strokeColor=#666666;" vertex="1" parent="1">
          <mxGeometry x="140" y="-390" width="200" height="200" as="geometry" />
        </mxCell>
        <mxCell id="r0rCcW0YkInOA2BVmBVI-2" value=".Número póliza" style="text;html=1;align=center;verticalAlign=middle;resizable=0;points=[];autosize=1;strokeColor=default;fillColor=none;" vertex="1" parent="r0rCcW0YkInOA2BVmBVI-1">
          <mxGeometry y="40" width="100" height="30" as="geometry" />
        </mxCell>
        <mxCell id="r0rCcW0YkInOA2BVmBVI-9" value="Cobertura" style="text;html=1;align=center;verticalAlign=middle;resizable=0;points=[];autosize=1;strokeColor=default;fillColor=default;" vertex="1" parent="r0rCcW0YkInOA2BVmBVI-1">
          <mxGeometry x="110" y="90" width="80" height="30" as="geometry" />
        </mxCell>
        <mxCell id="r0rCcW0YkInOA2BVmBVI-10" value="Prima" style="text;html=1;align=center;verticalAlign=middle;resizable=0;points=[];autosize=1;strokeColor=default;fillColor=none;" vertex="1" parent="r0rCcW0YkInOA2BVmBVI-1">
          <mxGeometry x="25" y="100" width="50" height="30" as="geometry" />
        </mxCell>
        <mxCell id="r0rCcW0YkInOA2BVmBVI-11" value="Fecha de inicio" style="text;html=1;align=center;verticalAlign=middle;resizable=0;points=[];autosize=1;strokeColor=default;fillColor=none;" vertex="1" parent="r0rCcW0YkInOA2BVmBVI-1">
          <mxGeometry x="90" y="140" width="100" height="30" as="geometry" />
        </mxCell>
        <mxCell id="r0rCcW0YkInOA2BVmBVI-13" value="Estado" style="text;html=1;align=center;verticalAlign=middle;resizable=0;points=[];autosize=1;strokeColor=default;fillColor=none;" vertex="1" parent="r0rCcW0YkInOA2BVmBVI-1">
          <mxGeometry x="15" y="160" width="60" height="30" as="geometry" />
        </mxCell>
        <mxCell id="r0rCcW0YkInOA2BVmBVI-6" style="edgeStyle=orthogonalEdgeStyle;rounded=0;orthogonalLoop=1;jettySize=auto;html=1;exitX=0;exitY=0.5;exitDx=0;exitDy=0;" edge="1" parent="1" source="r0rCcW0YkInOA2BVmBVI-3">
          <mxGeometry relative="1" as="geometry">
            <mxPoint x="340" y="-350" as="targetPoint" />
          </mxGeometry>
        </mxCell>
        <mxCell id="r0rCcW0YkInOA2BVmBVI-3" value="Cliente" style="rounded=0;whiteSpace=wrap;html=1;fillColor=#f8cecc;strokeColor=#b85450;" vertex="1" parent="1">
          <mxGeometry x="460" y="-410" width="120" height="60" as="geometry" />
        </mxCell>
        <mxCell id="r0rCcW0YkInOA2BVmBVI-7" style="edgeStyle=orthogonalEdgeStyle;rounded=0;orthogonalLoop=1;jettySize=auto;html=1;exitX=0;exitY=0.5;exitDx=0;exitDy=0;entryX=1;entryY=0.5;entryDx=0;entryDy=0;" edge="1" parent="1" source="r0rCcW0YkInOA2BVmBVI-4" target="r0rCcW0YkInOA2BVmBVI-1">
          <mxGeometry relative="1" as="geometry" />
        </mxCell>
        <mxCell id="r0rCcW0YkInOA2BVmBVI-4" value="Usuario" style="rounded=0;whiteSpace=wrap;html=1;fillColor=#fff2cc;strokeColor=#d6b656;" vertex="1" parent="1">
          <mxGeometry x="460" y="-320" width="120" height="60" as="geometry" />
        </mxCell>
        <mxCell id="r0rCcW0YkInOA2BVmBVI-8" style="edgeStyle=orthogonalEdgeStyle;rounded=0;orthogonalLoop=1;jettySize=auto;html=1;exitX=0;exitY=0.5;exitDx=0;exitDy=0;" edge="1" parent="1" source="r0rCcW0YkInOA2BVmBVI-5">
          <mxGeometry relative="1" as="geometry">
            <mxPoint x="340" y="-230" as="targetPoint" />
          </mxGeometry>
        </mxCell>
        <mxCell id="r0rCcW0YkInOA2BVmBVI-5" value="Ramo" style="rounded=0;whiteSpace=wrap;html=1;fillColor=#dae8fc;strokeColor=#6c8ebf;" vertex="1" parent="1">
          <mxGeometry x="460" y="-230" width="120" height="60" as="geometry" />
        </mxCell>
        <mxCell id="r0rCcW0YkInOA2BVmBVI-12" value="Fecha Fin" style="text;html=1;align=center;verticalAlign=middle;resizable=0;points=[];autosize=1;strokeColor=default;fillColor=none;" vertex="1" parent="1">
          <mxGeometry x="250" y="-342" width="80" height="30" as="geometry" />
        </mxCell>
        <mxCell id="r0rCcW0YkInOA2BVmBVI-15" style="edgeStyle=orthogonalEdgeStyle;rounded=0;orthogonalLoop=1;jettySize=auto;html=1;exitX=0;exitY=0.5;exitDx=0;exitDy=0;" edge="1" parent="1" source="r0rCcW0YkInOA2BVmBVI-14">
          <mxGeometry relative="1" as="geometry">
            <mxPoint x="280" y="-190" as="targetPoint" />
          </mxGeometry>
        </mxCell>
        <mxCell id="r0rCcW0YkInOA2BVmBVI-14" value="Aseguradora" style="rounded=0;whiteSpace=wrap;html=1;fillColor=#d5e8d4;strokeColor=#82b366;" vertex="1" parent="1">
          <mxGeometry x="460" y="-130" width="120" height="60" as="geometry" />
        </mxCell>
      </root>
    </mxGraphModel>
  </diagram>
</mxfile>
